<?xml version="1.0" standalone="no"?><!DOCTYPE svg PUBLIC "-//W3C//DTD SVG 1.1//EN" "http://www.w3.org/Graphics/SVG/1.1/DTD/svg11.dtd"><svg t="1662954559785" class="icon" viewBox="0 0 1102 1024" version="1.1" xmlns="http://www.w3.org/2000/svg" p-id="3731" xmlns:xlink="http://www.w3.org/1999/xlink" width="215.234375" height="200"><path d="M611.915595 1021.371873H38.648928a38.648928 38.648928 0 0 1-38.648928-38.648928V209.409426A38.648928 38.648928 0 0 1 27.621101 172.383753L600.887768 1.607022A38.648928 38.648928 0 0 1 650.564523 38.658461v78.148133a38.648928 38.648928 0 1 1-77.297856 0V90.499557L77.297856 238.241526V944.074017h495.968811V563.150182a38.648928 38.648928 0 0 1 77.297856 0V982.722945a38.648928 38.648928 0 0 1-38.648928 38.648928z" fill="#278deb" p-id="3732"></path><path d="M410.81234 484.022943H227.564889v-183.273217h183.273217z m-131.741313-51.531904h80.209408v-80.209409h-80.183642zM410.81234 701.126855H227.564889V517.90517h183.273217z m-131.741313-51.531904h80.209408V569.437074h-80.183642zM410.81234 993.853836H227.564889v-167.246795a91.636608 91.636608 0 1 1 183.273217 0z m-131.741313-51.531904h80.209408v-115.714891a40.104704 40.104704 0 1 0-80.209408 0zM756.952139 475.803604l-10.30638-49.985947A151.478032 151.478032 0 0 1 1031.66872 330.071379L1053.827439 376.192433l-50.114777-9.636466a228.337867 228.337867 0 0 0-117.363911 8.399701 228.518229 228.518229 0 0 0-95.334023 62.946221z m138.234333-180.361664A100.049192 100.049192 0 0 0 801.501471 360.732862a280.694282 280.694282 0 0 1 67.996347-34.397546 280.64275 280.64275 0 0 1 79.3076-15.047316 100.023426 100.023426 0 0 0-53.644712-15.742997z" fill="#278deb" p-id="3733"></path><path d="M1073.280733 615.815788l-27.698399-42.797247a282.291771 282.291771 0 0 0-107.856275-97.549894c-35.273588-18.036166-93.63347-27.801462-156.167435-25.765952l-50.990819 1.571723 28.986696-41.972736c24.039633-34.809801 64.801369-61.838285 111.798466-73.870985 47.512416-12.264593 96.62232-8.038977 134.755929 11.568913a177.965431 177.965431 0 0 1 85.208003 221.25223z m-227.281463-215.815615c36.871077 3.37534 80.054813 11.440083 115.302635 29.579313a334.751249 334.751249 0 0 1 89.742811 67.300667 126.613888 126.613888 0 0 0-68.511666-104.249042c-39.6538-20.30357-94.689874-15.433805-136.53378 7.44636z" fill="#278deb" p-id="3734"></path><path d="M874.573711 596.980877l1.958212-25.430995a140.86246 140.86246 0 0 0-13.372529-71.320155c-8.52853-17.855805-28.806334-39.344609-54.108499-57.458073l-20.767358-14.815423 24.116931-7.961679c42.874544-14.016678 97.446831 9.224211 116.797061 49.728287a88.841003 88.841003 0 0 1-32.980419 113.679381z m-24.992974-154.389585c13.604423 12.470721 28.342547 28.703271 36.819546 46.533309a167.143731 167.143731 0 0 1 15.408039 53.799308 63.152348 63.152348 0 0 0 4.225616-62.018646c-9.662232-20.071677-32.954653-34.732503-56.453201-38.313971zM763.264798 477.916412l-24.967208-44.497799c-28.342547-50.73316-57.741499-83.249791-94.921767-105.434276a282.523664 282.523664 0 0 0-135.400078-39.731098l-50.990819-1.623255 31.563291-40.091821a178.532282 178.532282 0 0 1 231.12059-42.642651c75.133516 44.806991 102.909213 142.588779 64.595242 227.487591z m-192.832385-233.542589a334.957377 334.957377 0 0 1 99.327745 39.344608A281.570324 281.570324 0 0 1 749.789205 356.429948c1.288298-44.188608-19.09257-85.903684-56.556265-108.216998a127.000378 127.000378 0 0 0-122.800527-3.839127z" fill="#278deb" p-id="3735"></path><path d="M785.062793 470.624648l-44.368969-25.199101c-29.759675-16.902465-81.626536-34.732503-119.528252-34.732504h-0.669915c-57.406541 0.309191-97.214937 6.49302-118.368783 18.345358l-44.4978 24.967208 6.312659-50.630096c4.19985-33.701865 24.88991-64.182987 58.282583-85.800621a188.993258 188.993258 0 0 1 99.095852-29.398951c34.346014 0 71.474751 13.93938 101.930106 38.648928 31.38293 25.559824 51.712266 59.467817 55.731755 93.015087z m-163.897221-111.463509c23.833506 0 50.217841 4.998595 75.081984 12.393423-20.612762-18.809145-48.31116-31.820951-74.205941-31.820951h-0.412256a128.572101 128.572101 0 0 0-75.545771 23.910804 571.488817 571.488817 0 0 1 74.15441-4.509042h0.927574z" fill="#278deb" p-id="3736"></path><path d="M454.331033 587.267113l-8.064743-45.45114c-11.517381-64.852901 40.478311-134.678631 123.676569-166.087327 82.68294-31.228334 163.716859-12.882976 197.032236 44.858523l22.828633 39.499204-45.631501-0.850276c-44.291672-0.82451-86.006748 7.085637-135.116652 25.611356A387.674515 387.674515 0 0 0 488.78011 556.554098z m194.867895-175.208474a174.744687 174.744687 0 0 0-61.116838 11.955401c-28.703271 10.847466-53.000563 28.033356-69.387709 47.35782a458.633947 458.633947 0 0 1 72.144666-34.655205 463.529477 463.529477 0 0 1 80.029047-22.802868 122.414038 122.414038 0 0 0-21.566102-1.90668z" fill="#278deb" p-id="3737"></path><path d="M795.13728 532.617528a69.568071 69.568071 0 1 1 69.568071-69.56807 69.568071 69.568071 0 0 1-69.568071 69.56807z m0-87.475407a18.036166 18.036166 0 1 0 18.036167 18.036167 18.036166 18.036166 0 0 0-18.036167-18.036167z" fill="#278deb" p-id="3738"></path><path d="M707.661873 548.515121a69.568071 69.568071 0 1 1 69.568071-69.568071 69.568071 69.568071 0 0 1-69.568071 69.568071z m0-87.475407a18.036166 18.036166 0 1 0 18.036167 18.036166 18.036166 18.036166 0 0 0-18.036167-18.036166zM838.862101 606.82347a69.568071 69.568071 0 1 1 69.568071-69.56807 69.568071 69.568071 0 0 1-69.568071 69.56807z m0-87.475407a18.036166 18.036166 0 1 0 18.036167 18.036166 18.036166 18.036166 0 0 0-18.036167-18.036166z" fill="#278deb" p-id="3739"></path><path d="M708.563682 931.062211l-46.378714-22.33908c87.114684-181.108877 41.792374-394.219066 41.225523-396.331875l50.320904-11.105125c2.061276 9.378807 49.779819 232.254292-45.167713 429.77608zM847.699823 928.691743l-51.531904-3.478403c11.362785-167.478688 6.080765-294.427534-14.531997-348.149544l48.027734-18.474188c30.30076 78.61192 26.487399 244.647715 18.036167 370.102135z" fill="#278deb" p-id="3740"></path><path d="M799.208301 1024l-2.576595-2.370468h-199.86649l11.156657-36.072332c7.265998-23.395484 14.093976-45.502671 27.904526-61.632158 17.881571-20.921953 43.261034-27.466505 75.416942-19.427528A190.410386 190.410386 0 0 1 783.6199 940.466783c22.72557-39.370375 63.667668-96.648086 113.67938-106.799871 17.649677-3.555701 44.343203-2.834255 71.268624 20.921953a541.523014 541.523014 0 0 0 49.470628 38.159375c21.282676 14.995784 38.082077 26.848122 47.022862 44.317438 13.784784 26.899654 1.571723 53.825074-8.837721 71.706644l-7.446361 12.882976h-248.409543z m26.822356-53.902372h191.930577c1.468659-3.864893 2.241638-7.497892 1.211-9.507636-3.143446-6.158063-16.619039-15.639933-30.919143-25.765952a592.436536 592.436536 0 0 1-53.876606-41.637779c-11.826572-10.460977-20.612762-10.306381-26.92542-9.043849-26.410101 5.436616-58.334115 45.013118-81.420408 85.955216z m-158.151414 0h68.125177a134.36944 134.36944 0 0 0-37.257566-15.459571c-15.614167-3.864893-22.184485-4.663637-30.841845 15.459571z" fill="#278deb" p-id="3741"></path></svg>